<?xml version="1.0" standalone="no"?>
<!DOCTYPE svg PUBLIC "-//W3C//DTD SVG 20010904//EN"
 "http://www.w3.org/TR/2001/REC-SVG-20010904/DTD/svg10.dtd">
<svg version="1.0" xmlns="http://www.w3.org/2000/svg"
 width="260.000000pt" height="373.000000pt" viewBox="0 0 260.000000 373.000000"
 preserveAspectRatio="xMidYMid meet">
<metadata>
Created by potrace 1.14, written by Peter Selinger 2001-2017
</metadata>
<g transform="translate(0.000000,373.000000) scale(0.100000,-0.100000)"
fill="#000000" stroke="none">
<path d="M1310 3711 c0 -6 -87 -11 -202 -13 -185 -3 -206 -5 -243 -25 -53 -28
-89 -68 -117 -128 l-23 -50 -3 -1500 c-2 -1171 -5 -1501 -15 -1507 -9 -6 -9
-10 -1 -16 6 -4 14 -53 17 -112 3 -58 11 -122 18 -143 17 -53 71 -111 127
-139 l47 -23 730 0 730 0 42 22 c23 13 44 27 48 33 3 5 11 10 17 10 6 0 3 -10
-8 -22 -10 -13 -2 -7 19 11 20 19 37 37 37 40 0 2 -9 -4 -20 -14 -27 -24 -25
-14 5 31 35 52 45 96 45 207 0 58 4 97 10 97 6 0 10 7 10 15 0 8 -4 15 -10 15
-6 0 -11 526 -12 1512 -3 1454 -4 1514 -22 1548 -26 49 -65 89 -110 112 -65
33 -206 41 -664 35 -241 -3 -425 -1 -428 4 -7 12 -24 12 -24 0z m1075 -51 c51
-16 117 -83 133 -137 8 -27 11 -106 10 -239 -1 -110 -4 -159 -5 -111 -4 84 -5
88 -25 81 -16 -5 -19 -3 -12 7 6 11 5 12 -7 2 -8 -6 -46 -11 -90 -10 -41 0
-80 -3 -86 -6 -6 -4 -13 -1 -16 5 -3 10 -7 10 -19 1 -8 -7 -18 -9 -22 -5 -9 8
-366 10 -366 1 0 -8 -38 -4 -46 4 -4 4 -20 7 -36 7 -21 0 -27 -4 -22 -12 5 -8
1 -8 -10 1 -16 13 -17 12 -10 -15 4 -16 16 -54 26 -84 10 -30 14 -50 9 -45 -8
10 -81 222 -81 238 0 4 18 7 40 7 38 0 80 23 80 44 0 5 -7 18 -17 28 -12 14
-31 18 -77 18 l-62 0 -37 113 c-20 62 -37 116 -37 121 0 13 739 1 785 -14z
m63 -1777 l3 -1203 -336 0 c-312 0 -335 1 -336 18 -1 15 -2 15 -6 0 -3 -13
-18 -16 -89 -16 -57 0 -84 4 -84 11 0 9 -2 9 -8 1 -4 -6 -33 -11 -64 -12 -47
0 -58 3 -59 16 0 15 -1 15 -7 1 -6 -14 -36 -16 -249 -17 -178 0 -243 3 -243
11 0 8 -3 7 -9 -1 -5 -9 -25 -12 -62 -10 l-54 3 -3 885 c-2 487 0 954 3 1037
l7 153 528 2 527 3 -24 60 c-12 33 -22 49 -21 35 1 -14 -2 -25 -7 -25 -6 0
-10 25 -10 55 -1 99 46 91 -508 90 l-487 0 0 40 c0 22 0 43 0 48 0 7 726 18
1270 17 l325 0 3 -1202z"/>
<path d="M1107 2573 c-4 -3 -7 -37 -7 -74 0 -52 4 -68 16 -73 21 -8 863 -6
979 3 l90 6 0 55 c-1 91 -1 90 -107 88 l-93 -2 93 -3 c72 -3 92 -7 92 -18 0
-12 -16 -15 -79 -15 -54 0 -81 -4 -84 -12 -3 -7 -11 2 -18 20 l-13 32 -432 0
c-237 0 -434 -3 -437 -7z"/>
<path d="M1539 2205 c-26 -8 -68 -30 -95 -47 -51 -35 -145 -147 -136 -162 3
-5 1 -7 -4 -4 -16 10 -16 -158 0 -217 8 -30 13 -55 11 -55 -4 0 18 -27 74 -91
18 -22 62 -53 99 -71 59 -29 76 -33 152 -33 71 0 94 4 141 26 79 37 133 90
171 167 29 59 33 76 33 152 0 71 -4 94 -26 141 -58 124 -169 199 -302 205 -45
3 -89 -2 -118 -11z m207 -62 c68 -23 145 -102 169 -172 25 -76 17 -183 -18
-244 -56 -95 -143 -146 -248 -147 -93 0 -154 24 -215 84 -60 60 -84 121 -84
210 0 111 60 204 162 255 72 36 154 41 234 14z"/>
<path d="M405 2870 c-316 -5 -340 -10 -385 -68 -20 -24 -20 -45 -20 -1043 l0
-1017 25 -31 c14 -16 43 -40 63 -53 36 -22 44 -23 324 -26 l286 -3 7 53 c9 70
2 344 -8 355 -5 4 -142 9 -305 11 -287 2 -298 3 -314 23 -17 20 -18 62 -18
578 0 505 5 619 25 639 6 6 97 12 435 27 69 3 128 9 133 14 11 11 -13 70 -31
75 -10 2 -124 4 -254 5 -239 0 -278 5 -278 37 0 29 51 36 220 30 91 -3 192 -8
226 -12 58 -5 62 -4 103 30 24 20 49 36 57 36 8 0 14 5 14 10 0 6 -5 10 -10
10 -16 0 -34 51 -34 100 -1 42 -3 46 -40 64 -63 31 -86 119 -33 131 12 3 42 6
66 7 25 2 46 9 49 16 2 6 0 11 -5 10 -4 -1 -138 -4 -298 -8z"/>
<path d="M240 2155 c-10 -12 -11 -21 -3 -33 9 -15 36 -17 234 -17 l224 0 3 28
3 27 -179 0 c-99 0 -199 3 -223 6 -35 5 -48 2 -59 -11z"/>
<path d="M905 30 c-61 -12 274 -20 735 -19 421 1 810 11 740 18 -50 5 -1447 6
-1475 1z"/>
</g>
</svg>
